# xmcd
#
# Track frame offsets:
#	150
#	10905
#	28010
#	40052
#	52287
#	68147
#	83982
#	95547
#	112655
#	126720
#	142895
#	152395
#	180272
#	190805
#	207575
#	222372
#	234757
#
# Disc length: 3332 seconds
#
# Revision: 1
# Processed by: cddbd v1.4b41PL2 Copyright (c) Steve Scherf et al.
# Submitted via: audiograbber 1.80
#
DISCID=e40d0211
DTITLE=The Peddlers - Greatest Hits Part One
DYEAR=1900
DGENRE=
TTITLE0=TIME AFTER TIME
TTITLE1=GIRL TALK
TTITLE2=WHO CAN I TURN TO (When Nobody Needs Me)
TTITLE3=STORMY WEATHER
TTITLE4=SMILE
TTITLE5=EMPTY CLUB BLUES
TTITLE6=YOU'RE THE REASON I'M LIVING
TTITLE7=IT AIN'T NO BIG THING
TTITLE8=SNEAKING UP ON YOU
TTITLE9=PENTATHLON
TTITLE10=WHAT NOW MY LOVE (Et Maintenant)
TTITLE11=LOVER
TTITLE12=COMIN' HOME BABY
TTITLE13=ON A CLEAR DAY YOU CAN SEE FOREVER
TTITLE14=BASIN' STREET BLUES
TTITLE15=NOBODY LIKES ME
TTITLE16=I'M A BOY IN LOVE
EXTD=
EXTT0=
EXTT1=
EXTT2=
EXTT3=
EXTT4=
EXTT5=
EXTT6=
EXTT7=
EXTT8=
EXTT9=
EXTT10=
EXTT11=
EXTT12=
EXTT13=
EXTT14=
EXTT15=
EXTT16=
PLAYORDER=
